P3
4 6
255
255 0 255  0 0 0  255 255 0  0 255 255  255 0 0  255 255 255
240 240 240  216 216 216  204 204 204  181 181 181  161 161 161  140 140 140
125 125 125  117 117 117  95 95 95  97 97 97  97 97 97  97 97 97
95 95 95  117 117 117  125 125 125  140 140 140  157 157 157  171 171 171